<?xml version="1.0" encoding="utf-8"?>
<!-- Generator: Adobe Illustrator 14.0.0, SVG Export Plug-In . SVG Version: 6.00 Build 43363)  -->
<!DOCTYPE svg PUBLIC "-//W3C//DTD SVG 1.0//EN" "http://www.w3.org/TR/2001/REC-SVG-20010904/DTD/svg10.dtd">
<svg version="1.0" id="Layer_1" xmlns="http://www.w3.org/2000/svg" xmlns:xlink="http://www.w3.org/1999/xlink" x="0px" y="0px"
	 width="98.455px" height="100px" viewBox="0 0 98.455 100" enable-background="new 0 0 98.455 100" xml:space="preserve">
<path d="M98.451,100h-8.956V84.869H9.042V100H0V42.959c0-2.464,1.945-4.469,4.418-4.469v-0.003c2.469,0,4.624,2.008,4.624,4.473
	v31.079h80.454V52.016c0-2.466,2.012-4.471,4.482-4.471c2.472,0,4.474,2.005,4.474,4.471V100z"/>
<path d="M21.157,48.058c3.801,0,6.879,3.075,6.879,6.875c0,3.802-3.078,6.881-6.879,6.881c-3.806,0-6.891-3.079-6.891-6.881
	C14.267,51.133,17.351,48.058,21.157,48.058"/>
<path d="M28.035,67.215c0,1.869-1.519,3.391-3.391,3.391h-9.778c-1.873,0-3.388-1.521-3.388-3.391c0-1.865,1.515-3.38,3.388-3.38
	h9.778C26.516,63.835,28.035,65.35,28.035,67.215"/>
<path d="M80.712,50.732c3.024,0,5.466,2.367,5.493,5.374l0.012,14.503H31.01V50.736L80.712,50.732z"/>
<path d="M47.998,47.585V16.19c0-3.378-2.748-6.124-6.12-6.124c-3.359,0-6.092,2.73-6.092,6.088c0,0.569-0.462,1.035-1.031,1.035
	c-0.57,0-1.031-0.466-1.031-1.035c0-0.751-0.609-1.356-1.36-1.356c-0.749,0-1.354,0.605-1.354,1.356
	c0,2.071,1.679,3.748,3.745,3.748c2.069,0,3.747-1.677,3.747-3.748c0-1.859,1.513-3.37,3.376-3.37c1.872,0,3.4,1.525,3.4,3.406
	v31.395H47.998z"/>
<path d="M36.595,38.065h3.454c0,0,0.681-2.945,0.681-7.641s-0.681-7.639-0.681-7.639h-8.83c0,0-0.791,2.378-0.791,7.639
	c0,5.262,0.791,7.641,0.791,7.641h3.515c0,0.007-0.007,0.016-0.007,0.027c0.003,0.058,0.109,5.727-3.604,9.493h2.446
	C36.653,43.463,36.598,38.457,36.595,38.065"/>
<path d="M61.107,35.588h37.348V0H61.107V35.588z M64.3,8.085c0-2.625,2.12-4.749,4.758-4.749h21.47c2.629,0,4.756,2.124,4.756,4.749
	v12.906H92.4l-1.784-4.853c-0.107-0.294-0.396-0.495-0.713-0.491c-0.314,0-0.595,0.204-0.702,0.5c0,0-0.506,1.43-0.999,2.837
	c-0.76-3.174-2.358-9.875-2.358-9.875c-0.083-0.354-0.412-0.598-0.776-0.574c-0.369,0.017-0.663,0.302-0.705,0.663
	c0,0-1.225,10.918-1.578,14.042c-0.639-0.958-1.274-1.918-1.274-1.918c-0.14-0.206-0.373-0.331-0.628-0.331h-2.899
	c-0.296-0.814-1.778-4.853-1.778-4.853c-0.113-0.294-0.396-0.495-0.715-0.491c-0.318,0-0.599,0.204-0.7,0.5
	c0,0-0.508,1.43-1.007,2.837c-0.758-3.17-2.357-9.875-2.357-9.875c-0.084-0.354-0.411-0.598-0.775-0.574
	c-0.365,0.017-0.659,0.302-0.705,0.663c0,0-1.222,10.918-1.578,14.042c-0.635-0.958-1.274-1.918-1.274-1.918
	c-0.137-0.206-0.373-0.331-0.624-0.331H64.3V8.085z M90.527,32.622h-21.47c-2.638,0-4.758-2.131-4.758-4.759v-5.369h1.762
	c0.371,0.552,2.196,3.299,2.196,3.299c0.175,0.264,0.497,0.387,0.804,0.314c0.307-0.074,0.537-0.333,0.572-0.647
	c0,0,0.809-7.205,1.33-11.814c0.868,3.66,1.948,8.167,1.948,8.167c0.077,0.326,0.356,0.562,0.69,0.577
	c0.337,0.02,0.64-0.186,0.748-0.5c0,0,0.613-1.736,1.158-3.271c0.578,1.572,1.249,3.383,1.249,3.383
	c0.102,0.295,0.386,0.492,0.7,0.492h3.021c0.369,0.552,2.196,3.299,2.196,3.299c0.176,0.264,0.493,0.387,0.8,0.314
	c0.309-0.074,0.541-0.333,0.572-0.647c0,0,0.812-7.205,1.334-11.817c0.871,3.664,1.948,8.17,1.948,8.17
	c0.078,0.326,0.356,0.562,0.689,0.577c0.338,0.02,0.641-0.186,0.749-0.5c0,0,0.617-1.736,1.158-3.271
	c0.575,1.572,1.243,3.383,1.243,3.383c0.107,0.295,0.388,0.492,0.702,0.492h3.411v5.369C95.283,30.491,93.156,32.622,90.527,32.622"
	/>
</svg>
