<svg xmlns="http://www.w3.org/2000/svg" xmlns:xlink="http://www.w3.org/1999/xlink" version="1.1" id="Layer_1" x="0px" y="0px" width="100.0px" height="100px" viewBox="0 0 109.5 109.5" enable-background="new 0 0 109.5 109.5" xml:space="preserve">
<path d="M47.137,36.041h9.805c1.828,2.289,4.502,5.59,5.502,6.59c0.682,0.681,3.063,0.923,5.064,0.923c2,0,4.381-0.242,5.063-0.923  c1-1,3.674-4.301,5.502-6.59H91.02c3.381,0,6.131-2.75,6.131-6.13V11.13C97.15,7.75,94.4,5,91.02,5H20.98  c-3.38,0-6.131,2.75-6.131,6.13v87.739c0,3.38,2.75,6.131,6.131,6.131h70.04c3.381,0,6.131-2.751,6.131-6.131v-2.51  c0-3.38-2.75-6.131-6.131-6.131H77.955c5.158-2.138,9.641-6.211,9.641-13.359c0-3.849-0.986-7.809-3-11.096  c-2.594-4.233-6.006-6.565-10.246-8.541l9.977-3.941l4.105,11.43l0.078,0.159c3.652,5.815,4.363,5.815,4.787,5.815  c0.289,0,0.553-0.129,0.729-0.354c0.289-0.374,0.246-0.846,0.094-1.438c-0.242-0.947-0.76-3.362-1.357-6.159  c-3-14.017-3.686-16.409-4.352-16.892c-0.271-0.196-0.6-0.219-0.824-0.219c-2.184,0-11.596,2.974-14.088,3.773  c-2.508-2.033-12.273-3.478-16.636-4.034l-1.854-0.236l5.662,8.026l0.285,3.932c-4.379,2.006-7.89,4.347-10.544,8.68  c-2.014,3.287-3,7.247-3,11.096c0,7.148,4.482,11.222,9.642,13.359h-9.916c-3.067,0-5.563-2.495-5.563-5.563V41.604  C41.574,38.537,44.069,36.041,47.137,36.041z M62.412,59.832h10.182c4.057,1.838,7.063,3.81,9.359,7.561  c0.918,1.499,1.596,3.218,2.023,5.04c-1.693-0.712-2.057-2.024-3.781-2.024c-2.365,0-2.596,3.057-5.762,3.057  s-4.566-3.057-6.932-3.057c-2.363,0-3.764,3.057-6.93,3.057s-3.397-3.057-5.762-3.057c-1.725,0-2.089,1.312-3.78,2.023  c0.427-1.821,1.104-3.54,2.023-5.039C55.351,63.642,58.355,61.67,62.412,59.832z"/>
</svg>