<svg xmlns="http://www.w3.org/2000/svg" xmlns:xlink="http://www.w3.org/1999/xlink" version="1.0" x="0px" y="0px" width="98.523px" height="99.494px" viewBox="0 0 98.523 99.494" overflow="visible" enable-background="new 0 0 98.523 99.494" xml:space="preserve">
    <path d="M4.379,3.969H1.66C0.743,3.969,0,4.712,0,5.629V26.12c0,0.917,0.743,1.661,1.66,1.661h2.719 c0.917,0,1.662-0.744,1.662-1.661V5.629C6.041,4.712,5.296,3.969,4.379,3.969z"/>
    <path d="M96.861,3.969h-2.718c-0.919,0-1.662,0.744-1.662,1.661V26.12c0,0.917,0.743,1.661,1.662,1.661h2.718 c0.918,0,1.662-0.744,1.662-1.661V5.629C98.523,4.712,97.779,3.969,96.861,3.969z"/>
    <path d="M87.532,0h-3.623c-1.225,0-2.217,0.992-2.217,2.215v11.374h-8.105c-0.293-0.591-0.708-1.134-1.247-1.584 c-2.07-1.725-5.14-1.449-6.867,0.618c0,0-0.311,0.368-0.815,0.966h-8.504c-1.206-2.603-3.832-4.411-6.892-4.411 c-3.061,0-5.687,1.808-6.893,4.411h-9.185l-0.821-0.966c-1.722-2.067-4.797-2.343-6.867-0.618 c-0.539,0.45-0.954,0.993-1.245,1.584h-7.422V2.215C16.829,0.992,15.838,0,14.614,0H10.99C9.766,0,8.775,0.992,8.775,2.215 v27.319c0,1.224,0.991,2.215,2.215,2.215h3.624c1.224,0,2.215-0.992,2.215-2.215V18.161h7.556 c0.142,0.249,0.303,0.491,0.494,0.719l13.918,16.659v16.258c0,0.451-2.035,42.371-2.035,42.371 c-0.197,2.74,1.875,5.121,4.614,5.312c2.741,0.186,5.115-1.87,5.305-4.617l1.692-32.644c0.302,0.02,1.613,0.031,1.964-0.013 l2.24,32.656c0.183,2.747,2.562,4.803,5.31,4.617c2.732-0.191,4.81-2.572,4.614-5.312c0,0-2.773-42.004-2.773-42.371V34.716 l9.804-11.741l3.432-4.095c0.189-0.228,0.352-0.471,0.493-0.719h8.236v11.374c0,1.224,0.992,2.215,2.217,2.215h3.623 c1.224,0,2.217-0.992,2.217-2.215V2.215C89.749,0.992,88.756,0,87.532,0z M55.251,24.708c-1.699,1.5-3.921,2.417-6.359,2.417 c-2.281,0-4.37-0.796-6.017-2.123l-5.811-6.842h4.724c0.646,3.541,3.738,6.228,7.473,6.228c3.732,0,6.827-2.688,7.472-6.228 h4.068C58.114,21.344,55.263,24.717,55.251,24.708z"/>
</svg>