<?xml version="1.0" encoding="utf-8"?>
<!-- Generator: Adobe Illustrator 15.1.0, SVG Export Plug-In . SVG Version: 6.00 Build 0)  -->
<!DOCTYPE svg PUBLIC "-//W3C//DTD SVG 1.1//EN" "http://www.w3.org/Graphics/SVG/1.1/DTD/svg11.dtd">
<svg version="1.1" id="Layer_1" xmlns="http://www.w3.org/2000/svg" xmlns:xlink="http://www.w3.org/1999/xlink" x="0px" y="0px"
	 width="75.594px" height="100px" viewBox="0 0 75.594 100" enable-background="new 0 0 75.594 100" xml:space="preserve">
<path d="M37.797,14c11.494,0,22.461,2.284,32.492,6.394l5.305-12.996C63.932,2.633,51.173,0,37.797,0S11.662,2.633,0,7.398
	l5.305,12.996C15.336,16.284,26.303,14,37.797,14z"/>
<path d="M37.797,18c-10.959,0-21.416,2.177-30.98,6.096L37.797,100l30.98-75.904C59.213,20.178,48.756,18,37.797,18z M20.297,36
	c0-4.418,3.582-8,8-8s8,3.582,8,8s-3.582,8-8,8S20.297,40.418,20.297,36z M37.797,69c-2.762,0-5-2.238-5-5s2.238-5,5-5s5,2.238,5,5
	S40.559,69,37.797,69z M51.297,39c-3.313,0-6-2.687-6-6s2.687-6,6-6s6,2.687,6,6S54.61,39,51.297,39z"/>
</svg>
