<?xml version="1.0" encoding="utf-8"?>
<!-- Generator: Adobe Illustrator 14.0.0, SVG Export Plug-In . SVG Version: 6.00 Build 43363)  -->
<!DOCTYPE svg PUBLIC "-//W3C//DTD SVG 1.0//EN" "http://www.w3.org/TR/2001/REC-SVG-20010904/DTD/svg10.dtd">
<svg version="1.0" id="Layer_1" xmlns="http://www.w3.org/2000/svg" xmlns:xlink="http://www.w3.org/1999/xlink" x="0px" y="0px"
	 width="96.673px" height="100px" viewBox="0 0 96.673 100" enable-background="new 0 0 96.673 100" xml:space="preserve">
<path d="M9.616,64.957c0.233-7.86-4.042-10.823-9.257-12.777C-1.375,58.904,3.406,64.501,9.616,64.957"/>
<path d="M10.797,29.855c3.325-7.124,0.568-11.552-3.46-15.408C3.106,19.943,5.282,26.975,10.797,29.855"/>
<path d="M12.672,49.676c-0.229-7.859,4.043-10.83,9.261-12.78C23.659,43.619,18.88,49.216,12.672,49.676"/>
<path d="M12.672,61.791c-0.229-7.857,4.043-10.823,9.261-12.776C23.659,55.736,18.88,61.334,12.672,61.791"/>
<path d="M12.672,37.563c-0.229-7.862,4.043-10.833,9.261-12.787C23.659,31.504,18.88,37.098,12.672,37.563"/>
<path d="M9.616,52.841c0.233-7.858-4.042-10.83-9.257-12.779C-1.375,46.786,3.406,52.381,9.616,52.841"/>
<path d="M9.616,40.729c0.233-7.862-4.042-10.833-9.257-12.789C-1.375,34.67,3.406,40.262,9.616,40.729"/>
<path d="M68.511,100H26.366L47.44,63.494L68.511,100z M34.739,95.164h25.397L47.44,73.166L34.739,95.164z"/>
<polygon points="3.464,75.127 92.744,50.842 91.42,45.937 2.131,70.225 "/>
<path d="M66.464,0c0,0,0.652,12.879,11.942,11.789C78.406,11.789,79.68,1.025,66.464,0"/>
<path d="M78.283,41.89c-1.177,1.668-3.144,2.748-5.35,2.748c-1.8,0-3.562-0.844-4.75-2.03c-2.431-2.653-5.583-8.582-5.583-8.582
	c-1.765-3.588-2.713-6.361-2.713-9.167c0-5.976,4.838-11.157,10.823-11.157c2.952,0,5.615,1.182,7.572,3.092
	c1.956-1.91,4.616-3.092,7.566-3.092c5.987,0,10.823,5.182,10.823,11.157c0,2.805-0.946,5.579-2.712,9.167
	c0,0-3.151,5.928-5.582,8.582c-1.188,1.187-2.952,2.03-4.751,2.03C81.422,44.637,79.459,43.558,78.283,41.89"/>
</svg>
