<svg xmlns="http://www.w3.org/2000/svg" xmlns:xlink="http://www.w3.org/1999/xlink" xmlns:a="http://ns.adobe.com/AdobeSVGViewerExtensions/3.0/" version="1.1" x="0px" y="0px" width="100px" height="100px" viewBox="-1.34 -4.813 100 100" enable-background="new -1.34 -4.813 100 100" xml:space="preserve">
<defs>
</defs>
<polygon points="64.951,11.109 64.951,84.347 87.16,90.373 89.285,90.116 89.285,4.633 85.785,4.633 "/>
<polygon points="37.661,65.672 37.661,90.331 43.994,90.331 44.109,60.587 "/>
<polygon points="37.661,0 37.661,24.731 44.228,29.961 44.328,4.318 87.828,4.318 91.66,4.324 91.66,90.331 96.66,90.331 96.66,0   "/>
<path d="M26.75,69.124c-0.375,0-0.754-0.087-1.095-0.25c-0.869-0.424-1.426-1.313-1.426-2.271V55.814H2.521  C1.131,55.814,0,54.683,0,53.292V37.039c0-1.391,1.131-2.521,2.521-2.521h21.707V23.73c0-0.961,0.56-1.853,1.427-2.272  c0.847-0.409,1.926-0.29,2.666,0.299l27.05,21.542c0.605,0.483,0.951,1.204,0.95,1.979c-0.002,0.775-0.352,1.495-0.961,1.976  l-27.048,21.33C27.87,68.932,27.315,69.124,26.75,69.124z M26.75,66.603v1.262V66.603L26.75,66.603z"/>
</svg>