<svg xmlns="http://www.w3.org/2000/svg" xmlns:xlink="http://www.w3.org/1999/xlink" version="1.1" id="&#22270;&#23618;_1" x="0px" y="0px" width="24px" height="24px" viewBox="0 0 24 24" enable-background="new 0 0 24 24" xml:space="preserve">
<path fill="#000000" d="M15.296,2.482c-2.923,0-5.513,1.127-7.106,2.859C8.36,5.334,8.531,5.331,8.705,5.331  c2.621,0,5.006,0.846,6.739,2.211c1.794,1.413,2.903,3.381,2.903,5.569c0,1.135-0.298,2.211-0.836,3.181  c0.767,1.099,2.525,2.042,4.955,1.159c-1.345-0.578-2.024-0.748-2.021-2.463l0,0c2.195-1.256,3.623-3.294,3.623-5.595  C24.069,5.578,20.139,2.482,15.296,2.482z"/>
<path fill="#000000" d="M8.705,6.201c4.844,0,8.772,3.095,8.772,6.911c0,3.816-3.929,6.912-8.772,6.912  c-0.724,0-1.426-0.069-2.098-0.199c-0.69,1.174-2.507,2.277-5.074,1.346c1.346-0.578,2.024-0.748,2.021-2.463l0,0  c-2.194-1.258-3.622-3.295-3.622-5.596C-0.069,9.295,3.86,6.201,8.705,6.201z"/>
</svg>