<svg xmlns="http://www.w3.org/2000/svg" xmlns:xlink="http://www.w3.org/1999/xlink" version="1.0" id="Layer_1" x="0px" y="0px" width="100px" height="100px" viewBox="0 0 100 100" enable-background="new 0 0 100 100" xml:space="preserve">
<path id="bell_1_" d="M56.287,74.863c0.913,3.28-0.835,6.762-4.091,7.946c-3.418,1.245-7.2-0.518-8.444-3.936  c-0.027-0.076-0.042-0.147-0.067-0.225C47.326,77.845,51.506,76.587,56.287,74.863z M53.155,70.889  c-2.562,0.894-4.881,1.622-6.967,2.2c-0.032,0.008-0.063,0.015-0.092,0.023c-0.686,0.188-1.35,0.361-1.985,0.521  c-0.013,0.004-0.024,0.007-0.036,0.009c-16.883,4.143-16.836-2.653-14.693-7.254c2.536-5.436-0.141-14.394-5.636-29.497  c-3.259-8.948,1.36-14.815,5.663-18.107c-0.334-0.49-0.62-1.021-0.832-1.604c-1.359-3.73,0.564-7.855,4.294-9.212  c3.728-1.357,7.854,0.565,9.211,4.296c0.242,0.665,0.376,1.343,0.418,2.016c5.314-0.062,12.097,1.724,15.2,10.251  c5.497,15.104,9.205,23.686,14.643,26.222c5.437,2.534,10.611,9.31-17.247,19.449c-0.66,0.241-1.292,0.46-1.921,0.682  C53.169,70.886,53.162,70.889,53.155,70.889z M38.314,13.635c-0.599-1.646-2.424-2.495-4.07-1.896  c-1.646,0.597-2.499,2.425-1.899,4.068c0.109,0.294,0.264,0.554,0.443,0.793c1.406-0.763,2.387-1.133,2.387-1.133  s1.31-0.461,3.315-0.811C38.484,14.317,38.438,13.973,38.314,13.635z M50.642,29.652c5.498,15.102,9.205,23.684,14.644,26.219  c1.343,0.627,2.659,1.515,3.479,2.644c1.811-1.246,2.596-2.138,2.91-2.591c-0.256-0.218-0.691-0.52-1.353-0.829  c-7.39-3.445-11.577-13.688-17.124-28.925c-1.593-4.384-4.438-6.618-8.948-7.034c-1.146-0.107-2.264-0.078-3.271,0.018  c-0.215,0.273-0.443,0.536-0.697,0.775C44.36,20.934,48.433,23.583,50.642,29.652z M40.774,94.83  c-0.451,1.321-0.814,2.391,0.46,2.822c1.273,0.43,1.631-0.637,2.082-1.954c0.449-1.319,2.253-8.521,1.556-8.762  C44.165,86.699,41.219,93.517,40.774,94.83z M53.785,94.474c0.409,0.955,0.74,1.729,1.658,1.337  c0.926-0.395,0.593-1.167,0.188-2.122c-0.408-0.955-2.984-5.85-3.493-5.634C51.633,88.271,53.38,93.519,53.785,94.474z   M32.75,88.025c0.444,0.897,1.195,0.525,2.125,0.067c0.933-0.459,5.673-3.299,5.431-3.795c-0.244-0.495-5.386,1.54-6.319,1.999  C33.059,86.755,32.306,87.127,32.75,88.025z"/>
</svg>