<svg xmlns="http://www.w3.org/2000/svg" xmlns:xlink="http://www.w3.org/1999/xlink" version="1.1" id="Layer_1" x="0px" y="0px" width="100px" height="100px" viewBox="0 0 100 100" enable-background="new 0 0 100 100" xml:space="preserve">
<g>
	<path fill="#000000" d="M29.1,27.091c4.081,1.252,8.389-1.04,9.643-5.12c1.219-4.067-1.061-8.36-5.141-9.604   c-4.053-1.257-8.365,1.023-9.617,5.104C22.741,21.55,25.045,25.845,29.1,27.091z"/>
	<path fill="#000000" d="M66.584,72.236l-1.375-10.702c-0.277-1.353-1.122-2.549-2.379-3.261l-8.16-2.449l13.507-8.184l16.513,7.313   c0.105,0.049,0.204,0.097,0.3,0.146c2.498,0.868,5.237-0.433,6.107-2.933c0.82-2.355-0.29-4.9-2.499-5.939l-18.816-8.384   c-0.094-0.025-0.154-0.074-0.253-0.098c-1.352-0.47-2.786-0.302-3.933,0.327l-12.433,7.591l-2.919-18.03l17.85-10.44   c0.846-0.47,1.509-1.231,1.786-2.196c0.57-1.954-0.54-4.008-2.498-4.599c-1.036-0.3-2.124-0.134-2.992,0.412l-25.44,14.941   c-0.894,0.47-1.667,1.135-2.33,1.905l-10.73,14.4l-14.771-1.763c-0.941,0.325-1.75,1.038-2.171,2.003   c-0.822,1.882,0.048,4.056,1.906,4.853c0.784,0.362,1.629,0.41,2.415,0.194l15.037,1.701c0.545-0.217,1.037-0.544,1.436-0.989   l6.106-7.667l2.919,16.548c0.543,2.332,2.102,4.382,4.309,5.492l13.108,3.91l0.696,5.436c-2.246-0.062-4.54-0.095-6.876-0.095   c-26.405,0-47.81,4.044-47.81,9.036c0,4.99,21.404,9.036,47.81,9.036c26.401,0,47.804-4.046,47.804-9.036   C97.807,76.824,84.812,73.511,66.584,72.236z"/>
</g>
</svg>