<svg xmlns="http://www.w3.org/2000/svg" xmlns:xlink="http://www.w3.org/1999/xlink" version="1.1" id="Layer_1" x="0px" y="0px" width="100px" height="100px" viewBox="0 0 100 100" enable-background="new 0 0 100 100" xml:space="preserve">
<path d="M16.806,78.248h65.855c3.33,0,6.043-2.713,6.043-6.043V28.943c0-3.333-2.713-6.046-6.043-6.046H61.743v-3.399  c0-3.33-2.717-6.042-6.05-6.042H43.77c-3.333,0-6.043,2.713-6.043,6.042v3.399H16.806c-3.333,0-6.043,2.713-6.043,6.046v43.262  C10.763,75.535,13.472,78.248,16.806,78.248z M43.219,19.498c0-0.301,0.247-0.547,0.551-0.547h11.923  c0.305,0,0.551,0.247,0.551,0.547v3.399H43.219V19.498z M16.254,28.943c0-0.304,0.247-0.551,0.551-0.551h20.921h5.492h13.025h5.499  h20.918c0.301,0,0.548,0.247,0.548,0.551v43.262c0,0.309-0.247,0.555-0.548,0.555H16.806c-0.305,0-0.551-0.246-0.551-0.555V28.943z"/>
<path d="M58.557,49.16l-6.077,6.073V39.279c0-1.519-1.229-2.748-2.748-2.748c-1.518,0-2.748,1.229-2.748,2.748v15.954L40.91,49.16  c-0.539-0.54-1.241-0.806-1.946-0.806c-0.702,0-1.407,0.266-1.942,0.806c-1.071,1.071-1.071,2.81,0,3.885l10.767,10.767  c0.035,0.031,0.069,0.062,0.104,0.093c0.031,0.023,0.062,0.054,0.092,0.085c0.031,0.023,0.062,0.046,0.092,0.069  c0.039,0.031,0.081,0.062,0.124,0.093c0.023,0.015,0.05,0.022,0.073,0.038c0.054,0.039,0.104,0.069,0.158,0.101  c0.02,0.008,0.039,0.015,0.054,0.022c0.062,0.031,0.127,0.062,0.193,0.093c0.011,0,0.027,0.008,0.038,0.016  c0.07,0.03,0.139,0.054,0.212,0.077c0.015,0,0.031,0,0.042,0.008c0.073,0.022,0.143,0.038,0.22,0.054  c0.027,0.008,0.054,0.008,0.081,0.016c0.062,0.008,0.124,0.015,0.185,0.03c0.088,0,0.181,0.008,0.273,0.008l0,0  c0.008,0,0.016,0,0.02,0c0.084,0,0.169-0.008,0.254-0.008c0.073-0.016,0.146-0.022,0.219-0.038c0.016,0,0.031-0.008,0.046-0.008  c0.089-0.016,0.173-0.039,0.254-0.062c0.004,0,0.004,0,0.004,0c0.169-0.054,0.335-0.123,0.489-0.2c0.004,0,0.004,0,0.008-0.008  c0.073-0.039,0.143-0.085,0.212-0.131c0.004,0,0.012,0,0.02-0.008c0.069-0.047,0.139-0.101,0.204-0.146  c0.004-0.008,0.008-0.008,0.012-0.016c0.073-0.054,0.139-0.123,0.204-0.186l10.76-10.759c1.079-1.075,1.079-2.813,0-3.885  C61.366,48.085,59.632,48.085,58.557,49.16z"/>
<path d="M97.013,81.901H2.504c-1.519,0-2.748,1.233-2.748,2.744c0,1.525,1.229,2.751,2.748,2.751h94.508  c1.511,0,2.744-1.226,2.744-2.751C99.757,83.135,98.523,81.901,97.013,81.901z"/>
</svg>