<?xml version="1.0" encoding="utf-8"?>
<!-- Generator: Adobe Illustrator 14.0.0, SVG Export Plug-In . SVG Version: 6.00 Build 43363)  -->
<!DOCTYPE svg PUBLIC "-//W3C//DTD SVG 1.0//EN" "http://www.w3.org/TR/2001/REC-SVG-20010904/DTD/svg10.dtd">
<svg version="1.0" id="Layer_1" xmlns="http://www.w3.org/2000/svg" xmlns:xlink="http://www.w3.org/1999/xlink" x="0px" y="0px"
	 width="100px" height="55.367px" viewBox="0 0 100 55.367" enable-background="new 0 0 100 55.367" xml:space="preserve">
<path d="M7.563,54.977C0.543,54.977,0,47.413,0,47.413V0.003h92.995c0,0,7.006-0.325,7.006,6.125c0,6.782-6.057,6.411-6.057,6.411
	H69.116c-0.622-0.233-1.28-0.4-1.974-0.485L46.834,9.49l-22.45-6.471c-0.718-0.208-1.464,0.205-1.673,0.919
	c-0.204,0.718,0.203,1.5,0.917,1.709l22.9,6.602c1.58,0.452,2.885,1.497,3.684,2.936c0.796,1.436,0.984,3.094,0.527,4.668
	c-0.45,1.576-1.493,2.882-2.936,3.68c-1.424,0.789-3.075,0.979-4.639,0.537c-0.011-0.003-0.021-0.003-0.036-0.003l-9.632-2.794
	c-4.997-1.566-8.716,0.007-12.666,1.67c-3.042,1.286-6.185,2.605-10.45,2.896c-0.522,0.034-1.072,0.067-1.714,0.064
	c-0.753-0.007-1.362,0.594-1.365,1.335c-0.012,0.748,0.615,1.401,1.365,1.401c5.725-0.003,9.713-1.688,13.232-3.175
	c3.765-1.589,6.742-2.847,10.806-1.57c0.012,0.003,0.853,0.247,2.026,0.584c-2.697,1.244-4.715,3.801-5.114,6.952
	c-0.455,3.621,1.345,7.016,4.298,8.765c-1.854,1.261-3.181,3.27-3.48,5.659c-0.555,4.404,2.578,8.695,6.983,9.123H7.563z"/>
<path d="M81.032,49.219h12.302v-3.091H81.032V49.219z M85.642,31.084v4.549h-4.61v3.094h4.61v4.501h3.091v-4.501h4.601v-3.094
	h-4.601v-4.549H85.642z M87.188,55.367c-7.543,0-11.221-6.154-11.221-11.631c0-8.052,11.221-25.855,11.221-25.855
	s11.216,17.804,11.216,25.855C98.404,49.213,94.734,55.367,87.188,55.367"/>
<path d="M72.135,21.64c-0.428,3.364-3.508,5.76-6.873,5.329l-14.888-1.874c1.439-1.138,2.482-2.69,2.998-4.487
	c0.654-2.274,0.386-4.671-0.767-6.747c-0.188-0.333-0.396-0.658-0.62-0.959l14.817,1.867C70.166,15.193,72.56,18.277,72.135,21.64"
	/>
<path d="M64.94,35.887c-0.206,1.626-1.036,3.081-2.334,4.089c-1.298,1.004-2.91,1.452-4.54,1.243l-20.404-2.571
	c-3.365-0.425-5.756-3.511-5.328-6.872c0.206-1.628,1.033-3.082,2.331-4.086c1.301-1.011,2.913-1.454,4.539-1.248l20.404,2.577
	C62.97,29.442,65.365,32.523,64.94,35.887"/>
<path d="M55.422,49.004c-0.367,2.909-3.037,4.979-5.944,4.614l-11.719-1.481c-2.906-0.365-4.979-3.035-4.612-5.943
	c0.369-2.907,3.039-4.977,5.945-4.607l11.716,1.477c2.687,0.34,4.652,2.636,4.652,5.27C55.46,48.556,55.454,48.778,55.422,49.004"/>
</svg>
