<svg xmlns="http://www.w3.org/2000/svg" xmlns:xlink="http://www.w3.org/1999/xlink" version="1.1" id="Layer_1" x="0px" y="0px" width="100.0px" height="100px" viewBox="0 0 283.46 283.46" enable-background="new 0 0 283.46 283.46" xml:space="preserve">
<circle cx="61.434" cy="141.327" r="4.424"/>
<g>
	<path d="M248.979,150.34c-25.711-10.268-50.54,2.398-76.831,15.804c-13.151,6.705-26.75,13.638-40.818,17.79   c-39.312,11.606-70.67-20.558-71.126-21.032c-1.361-1.435-3.631-1.492-5.066-0.132c-1.436,1.363-1.495,3.632-0.132,5.067   c1.176,1.238,25.002,25.856,58.602,25.856c6.271,0,12.883-0.857,19.752-2.885c14.704-4.341,28.604-11.427,42.044-18.28   c24.805-12.646,48.235-24.589,70.918-15.532c1.84,0.732,3.923-0.16,4.657-1.999S250.817,151.073,248.979,150.34z"/>
	<path d="M96.972,124.667c-8.445,9.735-12.054,21.861-7.883,30.578c0.616,1.286,1.898,2.038,3.235,2.038   c0.519,0,1.045-0.113,1.544-0.353c1.786-0.854,2.54-2.994,1.686-4.779c-4.214-8.806,4.433-24.232,17.792-31.744   c3.431-1.929,7.101-3.932,10.987-6.052c21.743-11.864,48.282-26.344,59.838-42.952c4.385,8.891,10.084,28.81-11.239,50.132   c-1.399,1.399-1.399,3.668,0,5.068c1.4,1.399,3.668,1.399,5.068,0c6.129-6.129,10.284-12.211,12.989-18.051   c2.728,6.515,4.987,18.974-8.313,32.274c-1.399,1.399-1.399,3.669,0,5.068c0.7,0.7,1.617,1.05,2.534,1.05s1.834-0.35,2.534-1.05   c23.07-23.07,7.153-45.329,6.39-46.362c5.022-21.058-6.984-37.104-7.156-37.328c-0.762-0.988-1.99-1.507-3.223-1.377   c-1.241,0.134-2.323,0.903-2.856,2.031c-7.952,16.806-36.811,32.552-59.999,45.204c-3.907,2.131-7.597,4.145-11.067,6.096   c-2.55,1.434-4.933,3.089-7.126,4.904c-2.521-0.944-8.455-3.009-15.671-4.458c-2.136-5.124,0.593-14.674,6.079-20.348l0.922-0.953   c10.669-11.028,24.599-25.426,30.437-37.27c3.105,5.901,6.067,16.537-1.333,30.189c-0.943,1.74-0.297,3.916,1.443,4.859   c1.741,0.943,3.916,0.298,4.859-1.443c14.049-25.919-3.288-43.664-3.464-43.84c-0.941-0.938-2.325-1.278-3.594-0.884   c-1.27,0.395-2.216,1.459-2.459,2.766c-1.973,10.595-19.464,28.675-31.038,40.639l-0.923,0.954   c-5.794,5.994-9.755,16.044-8.604,24.139c-12.676-1.349-26.808,0.451-33.36,12.756c-2.846,0.812-8.466,2.846-12.725,7.105   c-1.399,1.4-1.399,3.669,0,5.068c0.7,0.7,1.617,1.05,2.534,1.05s1.834-0.35,2.534-1.05c4.236-4.237,10.766-5.573,10.821-5.584   c1.148-0.222,2.116-0.989,2.593-2.057C59.13,114.202,86.344,121.194,96.972,124.667z"/>
</g>
</svg>