<svg xmlns="http://www.w3.org/2000/svg" xmlns:xlink="http://www.w3.org/1999/xlink" version="1.1" id="Layer_1" x="0px" y="0px" width="85.8407079646px" height="100px" viewBox="0 0 97.708 113.509" enable-background="new 0 0 97.708 113.509" xml:space="preserve">
<g>
	<path fill="#000000" d="M73.083,104.323V77.457l-30.875-31.5l-30.875,31.5v26.866h24.18V82.013c0-3.588,2.908-6.496,6.496-6.496   s6.496,2.908,6.496,6.496v22.311H73.083z M27.889,94.846h-8.755v-3.152h8.755V94.846z M27.889,89.92h-8.755v-9.319h8.755V89.92z    M42.009,65.915c-2.028,0-3.672-1.644-3.672-3.672s1.644-3.672,3.672-3.672s3.672,1.644,3.672,3.672S44.037,65.915,42.009,65.915z    M56.129,80.601h8.755v9.319h-8.755V80.601z M56.129,91.693h8.755v3.152h-8.755V91.693z"/>
	<path fill="#000000" d="M42.208,43.913l34.803,35.593l2.145-2.098L53.239,50.904V27.236L42.208,15.93L31.177,27.236v23.668   L5.261,77.408l2.145,2.098L42.208,43.913z M33.583,28.707h8.064v3.074c-0.707,0.172-1.831,0.821-1.831,3.213   c0,2.42-1.692,2.964-1.692,2.964h4.084h4.084c0,0-1.692-0.544-1.692-2.964c0-2.392-1.124-3.041-1.831-3.213v-3.074h8.064v10.875   h-17.25V28.707z"/>
	<rect x="6.333" y="105.871" fill="#000000" width="71.75" height="3.045"/>
	<path fill="#000000" d="M91.061,38.552L91.061,38.552c-1.835-1.876-4.809-1.876-6.645,0v-1.869h-1.29v73.781H0v3.045h84.416v-3.045   V47.189c1.836-1.876,4.81-1.876,6.646,0h-0.001c1.838,1.875,4.812,1.875,6.647,0v-8.638C95.872,40.428,92.898,40.428,91.061,38.552   z"/>
	<polygon fill="#000000" points="42.208,13.894 58.511,30.566 60.655,28.469 42.854,10.263 42.854,0 41.563,0 41.563,10.262    23.761,28.469 25.905,30.566  "/>
</g>
</svg>