<svg xmlns:dc="http://purl.org/dc/elements/1.1/" xmlns:cc="http://creativecommons.org/ns#" xmlns:rdf="http://www.w3.org/1999/02/22-rdf-syntax-ns#" xmlns:svg="http://www.w3.org/2000/svg" xmlns="http://www.w3.org/2000/svg" version="1.1" width="99.975143" height="100" id="svg2">
  <defs id="defs4"/>
  <metadata id="metadata7">
    <rdf:RDF>
      <cc:Work rdf:about="">
        <dc:format>image/svg+xml</dc:format>
        <dc:type rdf:resource="http://purl.org/dc/dcmitype/StillImage"/>
        <dc:title/>
      </cc:Work>
    </rdf:RDF>
  </metadata>
  <g transform="translate(-257.15625,-464.84375)" id="layer1">
    <path d="M 49.96875,0 C 35.10592,0 21.75452,6.53375 12.59375,16.84375 l -2.59375,0 -1.59375,0 0,1.59375 0,3.84375 C 3.09851,30.21992 0,39.74243 0,50 0,60.25757 3.09851,69.81133 8.40625,77.75 l 0,20.65625 0,1.59375 1.59375,0 39.96875,0 40,0 1.59375,0 0,-1.59375 0,-20.65625 c 5.30836,-7.93897 8.40625,-17.49177 8.40625,-27.75 0,-10.25823 -3.09789,-19.77978 -8.40625,-27.71875 l 0,-3.84375 0,-1.59375 -1.59375,0 -2.59375,0 C 78.21423,6.53386 64.83147,0 49.96875,0 z m 0,3.1875 c 12.89813,0 24.59956,5.23116 33.0625,13.65625 l -19.8125,0 -46.25,0 C 25.43168,8.41866 37.0706,3.1875 49.96875,3.1875 z m 0,14.3125 c 2.170689,0 4.134495,0.973766 5.46875,2.5 l 3.59375,0 26.90625,0 c 0.86483,1.03542 1.6634,2.11018 2.4375,3.21875 l 0,53.5625 C 79.91764,88.89277 65.87639,96.8125 49.96875,96.8125 c -15.90731,0 -29.91758,-7.92019 -38.375,-20.03125 l 0,-53.5625 C 12.36768,22.11047 13.19787,21.03517 14.0625,20 l 30.46875,0 c 1.326138,-1.526725 3.268007,-2.5 5.4375,-2.5 z m 0,1.0625 c -3.4038,0 -6.15625,2.7463 -6.15625,6.15625 0,3.40908 2.75245,6.15625 6.15625,6.15625 3.40731,0 6.1875,-2.7463 6.1875,-6.15625 0,-3.40995 -2.78107,-6.15625 -6.1875,-6.15625 z M 16.75,21.21875 c -0.61451,-0.0177 -1.23735,0.2114 -1.71875,0.59375 -0.4814,0.38236 -0.81561,0.92869 -0.9375,1.53125 -0.0305,0.15065 -0.02815,0.28357 -0.03125,0.4375 -0.009,0.4618 0.09127,0.9392 0.3125,1.34375 0.29495,0.53939 0.80193,0.9962 1.375,1.21875 L 26.8125,30.8125 42.84375,31.625 17.6875,21.46875 c -0.29957,-0.12614 -0.61259,-0.24077 -0.9375,-0.25 z m 66.53125,0 C 82.93,21.21817 82.57376,21.33248 82.25,21.46875 L 57.125,31.625 73.1875,30.8125 84.25,26.34375 c 0.56672,-0.22026 1.0481,-0.6562 1.34375,-1.1875 0.29598,-0.5313 0.3928,-1.1523 0.28125,-1.75 -0.11154,-0.5977 -0.43886,-1.1736 -0.90625,-1.5625 -0.23369,-0.19444 -0.49922,-0.33085 -0.78125,-0.4375 -0.28203,-0.10669 -0.60223,-0.1871 -0.90625,-0.1875 z M 8.40625,28.5 l 0,43.03125 C 5.06908,65.08948 3.1875,57.76197 3.1875,50 c 0,-7.76197 1.88158,-15.05823 5.21875,-21.5 z m 83.15625,0 c 3.33717,6.44177 5.21875,13.73803 5.21875,21.5 0,7.76197 -1.88158,15.08948 -5.21875,21.53125 l 0,-43.03125 z m -76.34375,2.78125 c -0.6809,0.003 -1.35965,0.27116 -1.84375,0.75 -0.4841,0.47884 -0.77067,1.16293 -0.78125,1.84375 -0.0106,0.68082 0.2498,1.35008 0.71875,1.84375 0.46896,0.49368 1.16328,0.8194 1.84375,0.84375 l 26.375,1.34375 -14.9375,-6.0625 -11.1875,-0.5625 c -0.0615,-0.004 -0.12592,-2.6e-4 -0.1875,0 z m 69.34375,0 -11.1875,0.5625 -14.9375,6.0625 26.40625,-1.34375 c 0.67362,-0.0245 1.31352,-0.35836 1.78125,-0.84375 0.46773,-0.48538 0.75042,-1.13843 0.75,-1.8125 -4.2e-4,-0.67408 -0.28166,-1.35897 -0.75,-1.84375 -0.46834,-0.48481 -1.1076,-0.75754 -1.78125,-0.78125 -0.0878,-0.003 -0.1936,-0.006 -0.28125,0 z M 29.75,32 l 12.84375,5.1875 0,0.75 0,19.53125 0,0.75 0,9.71875 4.78125,-8.21875 5.1875,-0.03125 4.8125,8.25 0,-9.71875 0,-0.75 0,-19.53125 0,-0.75 L 70.21875,32 l -15.625,0.78125 -9.25,0 L 29.75,32 z M 41.53125,59.28125 25.96875,85.9375 c -0.18041,0.29794 -0.32368,0.65549 -0.375,1 -0.0513,0.3445 -0.0232,0.66241 0.0625,1 0.0429,0.16879 0.11226,0.34197 0.1875,0.5 0.0753,0.15802 0.14602,0.29654 0.25,0.4375 0.20797,0.2819 0.48054,0.54299 0.78125,0.71875 0.3007,0.17575 0.65474,0.26651 1,0.3125 0.34526,0.046 0.69503,0.0284 1.03125,-0.0625 0.67243,-0.18192 1.25162,-0.6432 1.59375,-1.25 l 11.03125,-18.875 0,-10.4375 z m 16.90625,0 0,10.4375 11.03125,18.875 c 0.34213,0.6068 0.92132,1.06808 1.59375,1.25 0.33622,0.0909 0.68599,0.1085 1.03125,0.0625 0.34525,-0.046 0.6993,-0.13675 1,-0.3125 0.60141,-0.35153 1.04729,-0.98107 1.21875,-1.65625 0.0858,-0.33759 0.11384,-0.6555 0.0625,-1 -0.0513,-0.34451 -0.16334,-0.70206 -0.34375,-1 L 58.4375,59.28125 z m -6.3125,1.625 0,31.75 c -0.0128,0.69772 0.22985,1.40831 0.71875,1.90625 0.48891,0.49794 1.20843,0.78125 1.90625,0.78125 0.69784,0 1.3861,-0.28331 1.875,-0.78125 0.48891,-0.49794 0.76281,-1.20853 0.75,-1.90625 L 57.375,70 52.125,60.90625 z m -4.25,0.03125 -5.28125,9.03125 0,22.6875 c -0.0128,0.69772 0.2611,1.40831 0.75,1.90625 0.4889,0.49794 1.17716,0.78125 1.875,0.78125 0.69782,0 1.41735,-0.28331 1.90625,-0.78125 0.48891,-0.49794 0.76281,-1.20853 0.75,-1.90625 l 0,-31.71875 z M 11.59375,82 c 5.49827,6.59196 12.63466,11.73836 20.8125,14.8125 l -20.8125,0 0,-14.8125 z m 76.78125,0 0,14.8125 -20.8125,0 C 75.74033,93.73836 82.87673,88.59196 88.375,82 z" transform="translate(257.15625,464.84375)" id="path4203" style="font-size:medium;font-style:normal;font-variant:normal;font-weight:normal;font-stretch:normal;text-indent:0;text-align:start;text-decoration:none;line-height:normal;letter-spacing:normal;word-spacing:normal;text-transform:none;direction:ltr;block-progression:tb;writing-mode:lr-tb;text-anchor:start;baseline-shift:baseline;color:#000000;fill:#000000;fill-opacity:1;stroke:none;stroke-width:120.07185364;marker:none;visibility:visible;display:inline;overflow:visible;enable-background:accumulate;font-family:Sans;-inkscape-font-specification:Sans"/>
  </g>
</svg>